<svg width="525" height="73" viewBox="0 0 525 73" fill="none" xmlns="http://www.w3.org/2000/svg">
<g clip-path="url(#clip0_216_1138)">
<path d="M525 38.5837C518.596 29.5774 513.396 24.7848 511.815 23.8934C513.43 22.7589 518.058 18.441 524.003 11.4258H516.603C510.979 18.441 505.996 23.0368 504.037 24.2523C505.892 24.8774 511.059 29.5889 517.531 38.5953H525.012L525 38.5837ZM503.945 11.4258H497.851V38.5837H503.945V11.4142V11.4258ZM482.501 26.7759C488.939 26.5791 490.943 23.2336 490.943 19.3324C490.943 14.9681 488.778 11.4258 481.997 11.4258H465.18V38.5837H471.274V28.2229H475.593C477.678 28.2229 480.679 31.1402 485.731 38.5837H493.246C487.621 30.6308 484.689 27.4357 482.489 26.7759H482.501ZM471.274 15.79H480.53C482.81 15.79 484.15 17.156 484.15 20.0038C484.15 22.6547 482.764 23.9744 480.404 23.9744H471.263V15.79H471.274ZM445.866 15.79C447.138 19.2976 448.719 23.3841 450.38 27.401H439.623C441.318 23.3146 443.014 19.2976 444.641 15.79H445.878H445.866ZM455.237 38.5837H461.984C458.364 31.337 453.656 20.1543 450.38 11.4258H440.78C436.851 19.5292 432.143 30.4803 429.13 38.5837H435.534C436.267 36.5231 437.08 34.2194 437.996 31.8H452.109C453.186 34.2889 454.309 36.6273 455.237 38.5837ZM408.579 38.5837V29.6237H419.416C425.625 29.6237 428.248 25.4099 428.248 20.7331C428.248 15.4312 426.083 11.4142 419.301 11.4142H402.485V38.5721H408.579V38.5837ZM408.579 25.3289V15.7784H417.72C420.229 15.7784 421.535 17.376 421.535 20.6868C421.535 23.7661 420.103 25.3289 417.56 25.3289H408.579ZM362.769 11.4142H354.83C358.725 15.3848 363.926 21.3466 368.554 26.8801V38.5721H374.683V26.8454C379.311 21.6592 383.973 16.091 387.673 11.4142H380.273C378.039 14.4124 374.992 18.1168 371.75 21.775C368.703 17.9895 365.507 14.2967 362.769 11.4142ZM340.019 11.4142V38.5721H361.349V34.0921H346.113V11.4142H340.019ZM325.745 11.4142V38.5721H331.839V11.4142H325.745ZM300.715 28.7902C298.058 23.141 294.701 16.7045 291.654 11.4142H283.326V38.5721H289.191V18.36C292.043 23.5809 295.366 30.7466 297.863 36.0948H302.605C305.229 30.7581 308.7 23.7776 311.586 18.36V38.5837H317.566V11.4142H309.662C306.649 16.6351 303.258 23.1062 300.715 28.7902ZM264.001 15.7784C265.272 19.2861 266.853 23.3725 268.514 27.3894H257.758C259.453 23.303 261.148 19.2861 262.775 15.7784H264.012H264.001ZM273.371 38.5721H280.118C276.499 31.3254 271.79 20.1427 268.514 11.4142H258.915C254.985 19.5176 250.277 30.4687 247.264 38.5721H253.668C254.401 36.5115 255.214 34.2079 256.131 31.7884H270.244C271.321 34.2773 272.443 36.6157 273.371 38.5721ZM226.668 11.4142V38.5721H232.762V27.9335H245.145V23.5345H232.762V15.8595H249.613V11.4142H226.668Z" fill="#25254C"/>
<path d="M359.63 53.8875V56.5153H361.394C362.425 56.5153 362.941 56.0754 362.941 55.2072C362.941 54.339 362.425 53.8875 361.406 53.8875H359.63ZM357.671 52.2437H361.566C362.586 52.2437 363.388 52.4868 363.983 52.9846C364.579 53.4708 364.877 54.2117 364.877 55.1841C364.877 56.1565 364.579 56.8626 363.995 57.3604C363.399 57.8466 362.632 58.1013 361.681 58.1013H359.653V61.3774H357.694V52.2553L357.671 52.2437ZM355.953 52.2437V57.7308C355.953 59.039 355.644 59.9998 355.025 60.6133C354.407 61.2269 353.433 61.5394 352.116 61.5394C350.798 61.5394 349.802 61.2269 349.171 60.6018C348.541 59.9766 348.232 59.0042 348.232 57.6961V52.2437H350.214V57.6961C350.214 58.437 350.351 58.9927 350.638 59.3515C350.913 59.7104 351.428 59.884 352.161 59.884C352.895 59.884 353.353 59.7104 353.616 59.3515C353.868 58.9927 354.006 58.437 354.006 57.6961V52.2437H355.987H355.953ZM342.47 53.6676C341.725 53.6676 341.13 53.9454 340.695 54.5126C340.248 55.0799 340.03 55.8323 340.03 56.7816C340.03 57.7308 340.248 58.5296 340.695 59.0853C341.141 59.6409 341.737 59.9188 342.504 59.9303C343.261 59.9303 343.845 59.6525 344.28 59.0853C344.715 58.518 344.922 57.754 344.922 56.7816C344.922 55.8092 344.704 55.0683 344.257 54.5126C343.81 53.957 343.226 53.6792 342.47 53.6792V53.6676ZM342.493 52.0237C343.81 52.0237 344.876 52.4636 345.689 53.355C346.502 54.2348 346.915 55.3924 346.915 56.8163C346.915 58.2402 346.502 59.3978 345.689 60.2661C344.876 61.1459 343.799 61.5742 342.482 61.5742C341.164 61.5742 340.064 61.1343 339.251 60.2661C338.426 59.3863 338.025 58.2402 338.025 56.8163C338.025 55.3924 338.438 54.2117 339.251 53.3434C340.064 52.4636 341.153 52.0353 342.504 52.0353L342.493 52.0237ZM331.301 53.8181V56.3417H333.18C333.73 56.3417 334.153 56.2491 334.463 56.0754C334.772 55.9018 334.921 55.5545 334.921 55.0452C334.921 54.5705 334.772 54.2464 334.474 54.0727C334.176 53.8991 333.775 53.8181 333.26 53.8181H331.301ZM329.342 52.2437H333.833C334.726 52.2437 335.459 52.4521 336.021 52.8804C336.582 53.3087 336.868 53.957 336.868 54.8252C336.868 55.3577 336.742 55.8208 336.49 56.2144C336.238 56.608 335.883 56.8974 335.437 57.071C336.215 57.2331 336.662 57.9392 336.765 59.201C336.765 59.2473 336.765 59.3747 336.788 59.5946C336.8 59.8146 336.823 59.9882 336.834 60.1271C336.846 60.2545 336.868 60.4165 336.903 60.6018C336.926 60.787 336.972 60.9491 337.017 61.0764C337.063 61.2037 337.132 61.2963 337.189 61.3542H335.139C335.07 61.2153 335.024 61.0417 334.99 60.8333C334.955 60.6249 334.921 60.3587 334.898 60.0229C334.875 59.6988 334.864 59.5136 334.864 59.4789C334.795 58.8422 334.635 58.3907 334.394 58.1476C334.142 57.9045 333.707 57.7772 333.065 57.7772H331.301V61.3542H329.342V52.2321V52.2437ZM327.681 56.4343V61.3658H326.421L326.226 60.3239C325.55 61.1574 324.646 61.5742 323.511 61.5742C322.251 61.5742 321.232 61.1343 320.441 60.2545C319.651 59.3747 319.262 58.2402 319.262 56.8395C319.262 55.4387 319.674 54.2811 320.499 53.3897C321.323 52.4984 322.389 52.0469 323.695 52.0469C324.726 52.0469 325.596 52.3363 326.307 52.9267C327.017 53.5171 327.429 54.2811 327.544 55.242H325.631C325.539 54.7673 325.321 54.3969 324.966 54.1306C324.623 53.8644 324.187 53.737 323.66 53.737C322.904 53.737 322.32 54.0149 321.885 54.5589C321.449 55.1146 321.243 55.8671 321.243 56.8395C321.243 57.8119 321.461 58.5991 321.896 59.1547C322.332 59.7104 322.939 59.9766 323.729 59.9766C324.348 59.9766 324.852 59.7914 325.253 59.4094C325.654 59.0274 325.86 58.5296 325.883 57.9161H323.867V56.4343H327.658H327.681ZM314.989 59.6525V61.3658H308.597V52.2437H310.578V59.6409H314.989V59.6525ZM306.89 52.2553V57.7424C306.89 59.0505 306.58 60.0114 305.962 60.6249C305.343 61.2385 304.369 61.551 303.052 61.551C301.735 61.551 300.738 61.2385 300.108 60.6133C299.478 59.9882 299.169 59.0158 299.169 57.7077V52.2553H301.151V57.7077C301.151 58.4486 301.288 59.0042 301.574 59.3631C301.849 59.722 302.365 59.8956 303.098 59.8956C303.831 59.8956 304.289 59.722 304.553 59.3631C304.805 59.0042 304.942 58.4486 304.942 57.7077V52.2553H306.924H306.89ZM298.08 52.2553L294.541 55.8555L298.401 61.3774H295.915L293.178 57.2794L292.021 58.437V61.3774H290.073V52.2553H292.021V56.0407L295.572 52.2553H298.069H298.08ZM280.668 61.3774V52.2553H282.684L286.396 58.3675V52.2553H288.298V61.3774H286.316L282.581 55.2535V61.3774H280.668ZM276.636 57.8813L275.445 54.4895L274.242 57.8813H276.636ZM276.476 52.2437L279.912 61.3774H277.839L277.129 59.3399H273.772L273.039 61.3774H271.011L274.448 52.2437H276.487H276.476ZM264.883 53.8296V56.3533H266.761C267.311 56.3533 267.735 56.2607 268.045 56.087C268.354 55.9134 268.503 55.5661 268.503 55.0567C268.503 54.5821 268.354 54.258 268.056 54.0843C267.758 53.9107 267.357 53.8296 266.842 53.8296H264.883ZM262.924 52.2553H267.414C268.308 52.2553 269.041 52.4636 269.602 52.892C270.164 53.3203 270.45 53.9686 270.45 54.8368C270.45 55.3693 270.324 55.8323 270.072 56.2259C269.82 56.6195 269.465 56.9089 269.018 57.0826C269.797 57.2446 270.244 57.9508 270.347 59.2126C270.347 59.2589 270.347 59.3863 270.37 59.6062C270.381 59.8262 270.404 59.9998 270.416 60.1387C270.427 60.2661 270.45 60.4281 270.484 60.6133C270.507 60.7986 270.553 60.9606 270.599 61.088C270.645 61.2153 270.714 61.3079 270.771 61.3658H268.72C268.652 61.2269 268.606 61.0532 268.571 60.8449C268.537 60.6365 268.503 60.3702 268.48 60.0345C268.457 59.6988 268.445 59.5252 268.445 59.4904C268.377 58.8537 268.216 58.4023 267.976 58.1592C267.724 57.9161 267.288 57.7887 266.647 57.7887H264.883V61.3658H262.924V52.2437V52.2553ZM261.103 52.2553V61.3774H259.109V52.2553H261.103ZM247.62 61.3774V52.2553H250.449L252.557 58.518L254.607 52.2553H257.368V61.3774H255.501V54.8947L253.279 61.3774H251.743L249.498 54.9641V61.3774H247.608H247.62ZM243.335 52.2553L239.979 57.8698V61.3774H238.031V57.835L234.664 52.2668H236.92L239.028 55.9134L241.159 52.2668H243.347L243.335 52.2553ZM228.638 57.3025V59.7914H230.631C231.147 59.7914 231.559 59.7104 231.857 59.5367C232.155 59.3631 232.304 59.039 232.304 58.5528C232.304 58.0666 232.143 57.7308 231.834 57.5572C231.513 57.3951 231.089 57.3025 230.54 57.3025H228.649H228.638ZM228.638 53.8065V55.9481H230.436C231.433 55.9481 231.937 55.5892 231.937 54.8831C231.937 54.4663 231.8 54.1769 231.536 54.0264C231.261 53.8759 230.906 53.8065 230.448 53.8065H228.649H228.638ZM226.714 52.2553H230.986C231.834 52.2553 232.521 52.4405 233.06 52.8225C233.598 53.2045 233.862 53.7718 233.862 54.5474C233.862 54.9757 233.747 55.3577 233.529 55.6818C233.312 56.006 233.014 56.2607 232.624 56.4343C233.724 56.7469 234.274 57.4877 234.274 58.6685C234.274 59.5252 233.988 60.1966 233.415 60.6712C232.842 61.1458 232.109 61.3774 231.227 61.3774H226.714V52.2553Z" fill="#25254C"/>
<path d="M144.189 60.1619L144.223 60.1272L144.189 60.1619Z" fill="url(#paint0_linear_216_1138)"/>
<path d="M133.432 67.837C105.218 82.3884 77.4613 63.2181 76.751 46.9418C76.625 43.9551 76.9 40.9337 78.813 38.3406C80.6573 49.0371 83.6815 57.4762 96.4199 64.1442C108.643 70.5458 131.485 68.0685 133.306 67.8601C133.341 67.8601 133.364 67.8601 133.386 67.8601H133.398C133.409 67.8601 133.421 67.8601 133.421 67.8601L133.432 67.837Z" fill="#FA557B"/>
<path d="M195.532 8.75165L144.223 60.1387L144.189 60.1735C127.51 62.4308 109.697 61.3311 98.1841 47.3006C98.1039 47.1965 98.0122 47.0923 97.9206 46.9881C100.979 50.542 110.395 51.9659 118.323 50.3799C118.323 50.3799 118.346 50.3799 118.368 50.3799C118.368 50.3799 118.38 50.3799 118.391 50.3799C118.414 50.3799 118.426 50.3799 118.449 50.3915C118.449 50.3915 118.472 50.3915 118.483 50.3915C118.506 50.3915 118.54 50.4031 118.563 50.4147C118.575 50.4147 118.586 50.4147 118.609 50.4262C118.643 50.4378 118.689 50.4494 118.735 50.461C118.746 50.461 118.758 50.461 118.769 50.4725C118.827 50.4841 118.884 50.5073 118.953 50.5304C119.124 50.5883 119.342 50.6578 119.583 50.7388C119.606 50.7388 119.64 50.7504 119.663 50.762C119.72 50.7851 119.777 50.7967 119.823 50.8198C119.869 50.8314 119.915 50.8546 119.961 50.8661C120.018 50.8777 120.075 50.9009 120.121 50.924C120.178 50.9356 120.236 50.9587 120.281 50.9703C120.339 50.9819 120.385 51.0051 120.442 51.0282C120.522 51.0514 120.614 51.0861 120.705 51.1092C120.74 51.1092 120.763 51.1208 120.797 51.1324C120.923 51.1671 121.038 51.2134 121.164 51.2482C121.198 51.2597 121.232 51.2713 121.267 51.2829C121.358 51.306 121.461 51.3408 121.553 51.3639C121.599 51.3755 121.645 51.3871 121.679 51.4102C121.771 51.4334 121.874 51.4681 121.965 51.4913C122.011 51.5028 122.057 51.5144 122.103 51.5376C122.195 51.5607 122.298 51.5954 122.401 51.6186C122.447 51.6302 122.492 51.6418 122.55 51.6649C122.664 51.6881 122.767 51.7228 122.882 51.7575C122.905 51.7575 122.939 51.7691 122.962 51.7807C123.18 51.8385 123.397 51.8964 123.615 51.9543C136.594 55.3462 142.31 53.6676 151.818 44.1056C163.56 32.2862 180.663 11.692 184.867 9.05263C185.016 8.96002 185.153 8.89056 185.268 8.84426H185.279C185.325 8.82111 185.371 8.80953 185.417 8.79795C185.417 8.79795 185.428 8.79795 185.44 8.79795C185.486 8.78638 185.531 8.7748 185.577 8.7748H195.475L195.532 8.75165Z" fill="#BB2649"/>
<path d="M98.1841 47.2891C98.1841 47.2891 98.1153 47.2081 98.081 47.1733C91.4254 40.98 81.5738 34.8099 78.813 38.3291C80.6573 49.0255 83.6815 57.4647 96.4199 64.1326C109.158 70.8005 133.432 67.837 133.432 67.837C138.163 65.7185 143.708 60.6134 144.189 60.1619C127.51 62.4193 109.697 61.3195 98.1841 47.2891Z" fill="url(#paint1_linear_216_1138)"/>
<path d="M146.113 39.3825C135.002 52.128 123.042 51.7807 122.996 51.7807C123.214 51.8386 123.432 51.8965 123.649 51.9544C136.628 55.3462 142.345 53.6676 151.852 44.1056C163.594 32.2978 180.697 11.6921 184.913 9.05267C166.412 16.7162 158.863 24.7617 146.113 39.3825Z" fill="url(#paint2_linear_216_1138)"/>
<path d="M118.391 50.38C118.391 50.38 118.426 50.38 118.449 50.3915C118.449 50.3915 118.472 50.3915 118.483 50.3915C118.506 50.3915 118.54 50.4031 118.563 50.4147C118.575 50.4147 118.586 50.4147 118.609 50.4263C118.643 50.4263 118.689 50.4494 118.724 50.461C118.735 50.461 118.746 50.461 118.758 50.461C118.815 50.4841 118.872 50.4957 118.941 50.5189C119.113 50.5768 119.331 50.6462 119.571 50.7272C119.606 50.7272 119.629 50.7504 119.663 50.7504C119.72 50.762 119.766 50.7851 119.823 50.8083C119.869 50.8199 119.915 50.843 119.972 50.8546C120.029 50.8777 120.087 50.8893 120.144 50.9125C120.201 50.924 120.247 50.9472 120.304 50.9588C120.362 50.9703 120.407 50.9935 120.465 51.0167C120.545 51.0398 120.637 51.0745 120.717 51.0977C120.751 51.0977 120.774 51.1208 120.808 51.1208C120.934 51.1556 121.049 51.1903 121.175 51.2366C121.209 51.2366 121.244 51.2598 121.278 51.2713C121.37 51.2945 121.473 51.3292 121.564 51.3639C121.61 51.3755 121.656 51.3871 121.69 51.3987C121.782 51.4218 121.874 51.4566 121.977 51.4797C122.023 51.4913 122.069 51.5029 122.114 51.5144C122.206 51.5376 122.309 51.5723 122.412 51.5955C122.458 51.607 122.504 51.6186 122.561 51.6302C122.676 51.6649 122.79 51.6881 122.905 51.7228C122.928 51.7228 122.962 51.7344 122.985 51.746C123.019 51.746 134.99 52.0933 146.102 39.3478C158.863 24.7269 166.412 16.6698 184.901 9.01792L185.612 8.72852C168.543 9.12211 153.491 19.4713 141.726 31.3486C134.36 38.7805 128.472 46.7219 118.311 50.3568C118.311 50.3568 118.334 50.3568 118.357 50.3568C118.357 50.3568 118.368 50.3568 118.38 50.3568L118.391 50.38Z" fill="#FA557B"/>
<path d="M51.3431 12.8381L51.3086 12.8728L51.3431 12.8381Z" fill="url(#paint3_linear_216_1138)"/>
<path d="M62.0996 5.16303C90.3142 -9.38834 118.071 9.78197 118.781 26.0582C118.907 29.0449 118.632 32.0663 116.719 34.6594C114.875 23.9629 111.85 15.5238 99.1119 8.85587C86.889 2.45419 64.047 4.93151 62.2256 5.13988C62.1913 5.13988 62.1683 5.13988 62.1454 5.13988H62.134C62.1225 5.13988 62.1111 5.13988 62.1111 5.13988L62.0996 5.16303Z" fill="#6A6DBD"/>
<path d="M0 64.2484L51.3086 12.8728L51.343 12.8381C68.022 10.5807 85.8352 11.6805 97.3478 25.7109C97.428 25.8151 97.5196 25.9193 97.6113 26.0235C94.5527 22.4696 85.1364 21.0457 77.2093 22.6316C77.2093 22.6316 77.1863 22.6316 77.1634 22.6316C77.1634 22.6316 77.152 22.6316 77.1405 22.6316C77.1176 22.6316 77.1062 22.6316 77.0832 22.6201C77.0832 22.6201 77.0603 22.6201 77.0489 22.6201C77.026 22.6201 76.9916 22.6085 76.9687 22.5969C76.9572 22.5969 76.9458 22.5969 76.9229 22.5853C76.8885 22.5738 76.8427 22.5622 76.7969 22.5506C76.7854 22.5506 76.7739 22.5506 76.7625 22.539C76.7052 22.5274 76.6479 22.5043 76.5792 22.4811C76.4074 22.4233 76.1897 22.3538 75.9492 22.2728C75.9263 22.2728 75.8919 22.2612 75.869 22.2496C75.8117 22.2265 75.7544 22.2149 75.7086 22.1917C75.6628 22.1802 75.617 22.157 75.5711 22.1454C75.5139 22.1339 75.4566 22.1107 75.4108 22.0876C75.3535 22.076 75.2962 22.0528 75.2504 22.0412C75.1931 22.0297 75.1473 22.0065 75.09 21.9834C75.0098 21.9602 74.9182 21.9255 74.8265 21.9023C74.7922 21.9023 74.7693 21.8908 74.7349 21.8792C74.6089 21.8444 74.4943 21.7981 74.3683 21.7634C74.3339 21.7518 74.2996 21.7403 74.2652 21.7287C74.1736 21.7055 74.0705 21.6708 73.9788 21.6477C73.933 21.6361 73.8872 21.6245 73.8528 21.6013C73.7612 21.5782 73.6581 21.5435 73.5664 21.5203C73.5206 21.5087 73.4748 21.4972 73.429 21.474C73.3373 21.4509 73.2342 21.4161 73.1311 21.393C73.0853 21.3814 73.0395 21.3698 72.9822 21.3467C72.8677 21.3235 72.7646 21.2888 72.65 21.2541C72.6271 21.2541 72.5927 21.2425 72.5698 21.2309C72.3522 21.173 72.1345 21.1151 71.9169 21.0573C58.9379 17.6654 53.2217 19.344 43.7137 28.906C31.972 40.7254 14.8691 61.3196 10.665 63.9589C10.516 64.0516 10.3786 64.121 10.264 64.1673H10.2526C10.2067 64.1905 10.1609 64.202 10.1151 64.2136C10.1151 64.2136 10.1036 64.2136 10.0922 64.2136C10.0464 64.2252 10.0005 64.2368 9.95472 64.2368H0V64.2484Z" fill="#25254C"/>
<path d="M97.3478 25.7109C97.3478 25.7109 97.4165 25.7919 97.4509 25.8266C104.106 32.02 113.958 38.1901 116.719 34.6709C114.875 23.9744 111.85 15.5353 99.1119 8.8674C86.3736 2.19947 62.0996 5.163 62.0996 5.163C57.3685 7.28146 51.8241 12.3866 51.343 12.8381C68.022 10.5807 85.8352 11.6804 97.3478 25.7109Z" fill="url(#paint4_linear_216_1138)"/>
<path d="M49.4185 33.6175C60.5302 20.872 72.4896 21.2193 72.5355 21.2193C72.3178 21.1614 72.1002 21.1035 71.8825 21.0456C58.9036 17.6538 53.1873 19.3324 43.6794 28.8944C31.9376 40.7022 14.8347 61.3079 10.6191 63.9473C29.1196 56.2838 36.6687 48.2383 49.4185 33.6175Z" fill="url(#paint5_linear_216_1138)"/>
<path d="M77.1405 22.62C77.1405 22.62 77.1062 22.62 77.0833 22.6085C77.0833 22.6085 77.0603 22.6085 77.0489 22.6085C77.026 22.6085 76.9916 22.5969 76.9687 22.5853C76.9572 22.5853 76.9458 22.5853 76.9229 22.5737C76.8885 22.5737 76.8427 22.5506 76.8083 22.539C76.7969 22.539 76.7854 22.539 76.7739 22.539C76.7167 22.5159 76.6594 22.5043 76.5907 22.4811C76.4188 22.4232 76.2012 22.3538 75.9606 22.2728C75.9263 22.2728 75.9034 22.2496 75.869 22.2496C75.8117 22.238 75.7659 22.2149 75.7086 22.1917C75.6628 22.1801 75.617 22.157 75.5597 22.1454C75.5024 22.1223 75.4451 22.1107 75.3878 22.0875C75.3306 22.076 75.2848 22.0528 75.2275 22.0412C75.1702 22.0297 75.1244 22.0065 75.0671 21.9833C74.9869 21.9602 74.8953 21.9255 74.8151 21.9023C74.7807 21.9023 74.7578 21.8792 74.7234 21.8792C74.5974 21.8444 74.4829 21.8097 74.3569 21.7634C74.3225 21.7634 74.2881 21.7402 74.2538 21.7287C74.1621 21.7055 74.059 21.6708 73.9674 21.6361C73.9216 21.6245 73.8757 21.6129 73.8414 21.6013C73.7497 21.5782 73.6581 21.5434 73.555 21.5203C73.5092 21.5087 73.4633 21.4971 73.4175 21.4856C73.3259 21.4624 73.2228 21.4277 73.1197 21.4045C73.0739 21.393 73.028 21.3814 72.9708 21.3698C72.8562 21.3351 72.7417 21.3119 72.6271 21.2772C72.6042 21.2772 72.5698 21.2656 72.5469 21.254C72.5126 21.254 60.5417 20.9068 49.43 33.6522C36.6687 48.2731 29.1196 56.3302 10.6306 63.9821L9.92036 64.2715C26.9889 63.8779 42.0412 53.5287 53.8059 41.6514C61.1717 34.2195 67.0598 26.2781 77.2207 22.6432C77.2207 22.6432 77.1978 22.6432 77.1749 22.6432C77.1749 22.6432 77.1634 22.6432 77.152 22.6432L77.1405 22.62Z" fill="#6A6DBD"/>
</g>
<defs>
<linearGradient id="paint0_linear_216_1138" x1="78.6912" y1="60.1504" x2="144.223" y2="60.1504" gradientUnits="userSpaceOnUse">
<stop stop-color="#E6A0C2"/>
<stop offset="1" stop-color="#D80180"/>
</linearGradient>
<linearGradient id="paint1_linear_216_1138" x1="136.823" y1="72.537" x2="92.8802" y2="45.6873" gradientUnits="userSpaceOnUse">
<stop stop-color="#BB2649"/>
<stop offset="1" stop-color="#FA557B"/>
</linearGradient>
<linearGradient id="paint2_linear_216_1138" x1="193.756" y1="16.612" x2="143.038" y2="39.1581" gradientUnits="userSpaceOnUse">
<stop stop-color="#BB2649"/>
<stop offset="1" stop-color="#FA557B"/>
</linearGradient>
<linearGradient id="paint3_linear_216_1138" x1="60.272" y1="14.806" x2="109.786" y2="25.3844" gradientUnits="userSpaceOnUse">
<stop stop-color="#E6A0C2"/>
<stop offset="1" stop-color="#D80180"/>
</linearGradient>
<linearGradient id="paint4_linear_216_1138" x1="53.8976" y1="-3.49606" x2="101.969" y2="27.8403" gradientUnits="userSpaceOnUse">
<stop stop-color="#25254C"/>
<stop offset="1" stop-color="#6A6DBD"/>
</linearGradient>
<linearGradient id="paint5_linear_216_1138" x1="13.9068" y1="70.0365" x2="61.3589" y2="22.7478" gradientUnits="userSpaceOnUse">
<stop stop-color="#25254C"/>
<stop offset="1" stop-color="#6A6DBD"/>
</linearGradient>
<clipPath id="clip0_216_1138">
<rect width="525" height="73" fill="white"/>
</clipPath>
</defs>
</svg>
