<svg width="33" height="26" viewBox="0 0 33 26" fill="none" xmlns="http://www.w3.org/2000/svg">
<path d="M32.9991 5.42418V20.6342C32.9785 20.7057 32.9501 20.7763 32.9397 20.8486C32.517 23.6726 30.1114 25.7889 27.2547 25.7932C20.0819 25.8053 12.9082 25.8078 5.73541 25.7923C2.5584 25.7855 0.00731831 23.1887 0.0038744 20.004C-0.00129147 15.2901 -0.00129147 10.5754 0.0038744 5.86156C0.00731831 2.53818 2.5274 0.0086298 5.8525 0.00518589C12.9074 -0.00256291 19.9622 -0.000840954 27.0179 0.00518589C29.7386 0.00776883 31.9875 1.71423 32.7477 4.33332C32.8519 4.69149 32.9165 5.06085 33 5.42504L32.9991 5.42418ZM3.29023 5.79096C3.28248 5.94507 3.27473 6.02859 3.27473 6.1121C3.27473 10.7726 3.27387 15.4322 3.27645 20.0927C3.27645 20.2847 3.2842 20.4818 3.32467 20.6687C3.58813 21.8714 4.61097 22.6661 5.90071 22.667C9.24045 22.6704 12.5793 22.6679 15.9191 22.6679C19.5808 22.6679 23.2425 22.6635 26.9034 22.6713C27.8315 22.673 28.572 22.326 29.1144 21.5753C29.4812 21.0673 29.544 20.4965 29.5415 19.8731C29.5191 15.3203 29.5294 10.7674 29.5294 6.21456C29.5294 6.0923 29.5294 5.97004 29.5294 5.79354C29.3804 5.91063 29.2883 5.98037 29.1996 6.05442C26.2379 8.53748 23.2744 11.018 20.3161 13.5062C18.0086 15.4468 14.8368 15.464 12.5191 13.5286C10.4914 11.8359 8.47159 10.1355 6.4483 8.43847C5.4134 7.5706 4.3785 6.70359 3.29109 5.79182L3.29023 5.79096ZM5.4487 3.30704C5.56924 3.4181 5.63553 3.48526 5.70699 3.54553C8.65068 6.01567 11.5944 8.48668 14.5406 10.9534C15.8407 12.0417 17.1744 12.0442 18.465 10.9465C21.3837 8.46257 24.2946 5.9709 27.2082 3.48095C27.2581 3.43791 27.2977 3.38194 27.3649 3.30704H5.4487Z" fill="#BB2649"/>
</svg>
