<svg width="58" height="105" viewBox="0 0 58 105" fill="none" xmlns="http://www.w3.org/2000/svg">
<path fill-rule="evenodd" clip-rule="evenodd" d="M57.9007 79.0245C57.4101 78.956 56.9137 78.8819 56.4174 78.7963C50.6952 77.5127 45.8117 74.7286 42.2403 70.0276C38.8344 65.127 37.3739 58.646 40.6315 53.289C37.0316 62.4228 43.2558 71.2999 51.4483 75.0994C53.6105 75.9894 55.767 76.5599 57.9007 76.8566V75.7213C55.3676 75.3048 52.8974 74.4662 50.5183 73.1426C45.3895 70.0105 41.4245 64.6649 42.1775 58.4007C42.594 67.1295 49.9193 72.5493 57.9007 73.8272V72.4466C52.4524 71.317 47.4376 68.0822 45.6747 62.5369C48.282 67.66 52.8631 70.2786 57.9007 70.9461V69.1947C55.1337 68.5728 52.5665 67.215 50.5469 64.9501C52.8403 66.8214 55.3448 67.8939 57.9007 68.3104V65.9827C57.2332 65.7888 56.5657 65.5434 55.9096 65.2411C56.5771 65.435 57.2389 65.5834 57.9007 65.6918V37.2292C51.357 30.6741 40.4147 31.6839 32.9125 36.9268C19.6882 47.0476 19.3345 65.1099 27.8521 78.4026C33.6199 86.6236 41.5785 91.8438 51.2486 94.4225C53.4793 94.9245 55.7042 95.2497 57.9007 95.4209V95.2212C52.9601 94.7762 47.9796 93.464 43.1132 91.1763C27.1162 82.8697 17.389 64.2427 25.6842 47.0362C28.5652 41.6335 32.7642 37.5202 38.5149 35.3123C44.6136 33.2642 51.6879 33.8518 56.1264 38.9407C48.4759 32.4312 37.8474 35.4207 31.4577 42.1356C19.7395 55.6052 25.2221 74.7229 38.2924 84.9863C44.277 89.2993 50.8663 91.6726 57.9007 92.3116V92.0663C57.5356 92.0378 57.1647 92.0035 56.7996 91.9693C39.1481 89.4191 23.9499 75.2249 26.0664 56.4325C26.9849 50.4707 29.5465 45.2733 34.179 41.3483C39.1481 37.4802 45.8915 35.706 51.6365 38.9864C42.3658 35.4606 33.4887 41.8218 29.809 50.1854C23.4022 66.7016 35.012 82.67 50.6496 87.8274C53.0799 88.5177 55.4989 88.9684 57.9064 89.1909V88.6889C44.8304 87.2683 33.0209 79.2984 29.6435 65.435C28.474 59.5988 29.073 53.9108 32.0225 48.6907C35.2858 43.4534 40.8711 39.5112 47.2779 40.5724C37.4537 40.5438 31.4805 49.5864 31.0241 58.6175C30.9214 74.141 43.6837 84.3188 57.9121 86.0189V85.5169C49.5428 84.6554 41.6926 80.6619 36.3355 72.9486C33.1749 67.9738 31.6973 62.5083 32.5474 56.6321C33.6656 50.676 37.3625 45.0451 43.5981 43.6987C34.5156 47.3101 32.3819 57.8872 35.2915 66.3821C39.2737 76.5257 48.1736 81.8599 57.9178 82.8469V82.3277C53.7246 81.7858 49.5656 80.3196 45.6348 77.7466C40.8597 74.3464 37.448 69.8622 36.0161 64.1343C34.8066 58.2695 36.0389 51.7087 41.2134 48.1088C34.2646 54.9834 36.4154 65.5606 42.3886 72.2697C46.8785 76.8851 52.2983 79.2926 57.9178 79.9145V79.0245H57.9007Z" fill="white"/>
<path fill-rule="evenodd" clip-rule="evenodd" d="M57.9007 1.8236C52.8859 0.471496 47.5745 -0.138946 42.1433 0.026501C47.5574 -0.121831 52.8745 0.528547 57.9007 1.92058V1.8293V1.8236Z" fill="white"/>
<path fill-rule="evenodd" clip-rule="evenodd" d="M57.9008 5.02984V5.17817C46.5306 1.88065 33.8311 3.05018 22.3696 8.41865C33.8596 2.99884 46.4108 1.70949 57.9008 5.02984Z" fill="white"/>
<path fill-rule="evenodd" clip-rule="evenodd" d="M57.9007 8.20755C39.1139 2.69646 20.2302 9.49119 7.43372 24.1247C20.3158 9.46837 39.8214 2.73639 57.9007 8.50421V8.20755Z" fill="white"/>
<path fill-rule="evenodd" clip-rule="evenodd" d="M57.9007 11.4708V11.893C55.4875 11.0201 52.9829 10.3641 50.4157 9.94758C26.9222 7.07794 7.10851 22.5158 0 44.3719C6.16147 25.2657 21.5195 11.2369 41.8409 9.38278C47.4661 9.10323 52.8403 9.77073 57.895 11.4708H57.9007Z" fill="white"/>
<path fill-rule="evenodd" clip-rule="evenodd" d="M57.9007 14.6543V15.2305C50.6609 12.5377 42.4 12.0927 34.5213 13.9811C11.5812 20.4506 -0.810169 42.4836 1.10673 65.5492C-0.627607 45.4274 8.17531 26.4181 26.3174 16.8051C35.5026 12.4008 45.1213 11.1628 55.0367 13.673C56.0066 13.964 56.965 14.2891 57.9064 14.6543H57.9007Z" fill="white"/>
<path fill-rule="evenodd" clip-rule="evenodd" d="M57.9007 17.9176V18.4539C46.4107 13.6046 32.4903 15.9037 21.7648 23.5257C2.79546 38.1592 -0.473547 63.3641 10.0067 84.1363C0.821503 66.0569 1.85982 45.0623 15.1298 29.2878C22.0272 21.7229 30.5335 16.9477 40.7113 15.5557C46.6446 14.9909 52.5893 15.8181 57.895 17.9176H57.9007Z" fill="white"/>
<path fill-rule="evenodd" clip-rule="evenodd" d="M57.9007 20.9697V21.8483C41.7553 14.2435 23.4421 22.0651 13.772 36.6416C1.28931 57.1741 7.33097 81.9455 24.663 97.5716C9.53883 83.9993 2.92666 64.003 9.63011 44.4632C13.3441 34.9015 19.574 27.3651 28.5937 22.3903C37.9501 17.7236 48.881 17.0218 57.9064 20.964L57.9007 20.9697Z" fill="white"/>
<path fill-rule="evenodd" clip-rule="evenodd" d="M57.9007 24.1475V25.2657C55.6986 24.0619 53.3025 23.1776 50.7409 22.5672C31.4977 18.8361 15.4322 33.1045 11.1306 51.1553C6.49811 74.7457 20.7551 95.9001 42.44 104.543C23.562 97.081 10.4289 80.6276 9.94397 60.0038C10.1208 49.7461 13.3442 40.5324 20.0762 32.745C29.9174 22.2705 45.1613 17.8092 57.9007 24.1475Z" fill="white"/>
<path fill-rule="evenodd" clip-rule="evenodd" d="M57.9008 27.3822V28.7572C57.4501 28.4548 56.9937 28.1695 56.5258 27.9071C50.6724 24.8663 44.414 24.3643 38.0186 25.8248C20.544 30.5771 11.7753 47.8805 13.6009 65.1441C16.927 87.8731 35.8621 102.729 57.9008 104.709V104.72C38.8858 103.1 22.3924 92.1804 15.4266 73.8785C12.1804 64.1913 12.1461 54.4585 15.8944 44.9082C22.4324 30.0579 38.0471 20.1825 54.2324 25.608C55.4989 26.0929 56.7312 26.6919 57.9065 27.3822H57.9008Z" fill="white"/>
<path fill-rule="evenodd" clip-rule="evenodd" d="M57.9008 30.6456V32.4655C55.2993 30.4231 52.0987 29.0368 48.8012 28.3807C42.3259 27.3766 36.2786 28.8942 30.7333 32.3115C15.8145 42.3752 13.1331 61.4872 20.4185 77.1191C28.1203 92.0606 42.3887 100.253 57.9008 101.445V101.554C45.3725 100.652 33.6029 95.1128 24.9768 84.7753C18.7868 76.7197 15.6091 67.5802 16.0427 57.3909C17.3948 41.3369 28.8791 27.0001 45.846 26.9259C50.0962 27.0914 54.3693 28.3978 57.9065 30.6399L57.9008 30.6456Z" fill="white"/>
<path fill-rule="evenodd" clip-rule="evenodd" d="M57.9008 33.8062V36.499C54.6204 32.8135 49.5371 31.0963 44.4768 31.0849C38.2354 31.3359 32.8669 33.9089 28.3428 38.1534C14.8218 51.9141 18.0167 72.8688 30.6077 86.0361C38.4579 93.6238 48.031 97.5888 57.9008 98.3533V98.5016C50.855 97.9539 43.8606 95.7746 37.3283 91.7868C28.9476 86.1844 23.0428 78.6138 20.2131 68.8923C16.1454 52.4161 23.756 33.635 41.6185 30.0979C47.3635 29.2136 53.4793 30.4459 57.9065 33.8005L57.9008 33.8062Z" fill="white"/>
</svg>
