<svg width="74" height="58" viewBox="0 0 74 58" fill="none" xmlns="http://www.w3.org/2000/svg">
<path fill-rule="evenodd" clip-rule="evenodd" d="M29.4057 31.0284L16.4673 32.441L15.0435 45.2735L13.6242 32.441L0.685791 31.0284L13.6242 29.6158L15.0435 16.7833L16.4673 29.6158L29.4057 31.0284Z" fill="white"/>
<path fill-rule="evenodd" clip-rule="evenodd" d="M60.8796 9.4202L52.3237 10.356L51.385 18.8448L50.4417 10.356L41.8903 9.4202L50.4417 8.48877L51.385 0L52.3237 8.48877L60.8796 9.4202Z" fill="white"/>
<path fill-rule="evenodd" clip-rule="evenodd" d="M47.5942 28.9536L41.7835 29.5849L41.1473 35.3456L40.5066 29.5849L34.7003 28.9536L40.5066 28.318L41.1473 22.5573L41.7835 28.318L47.5942 28.9536Z" fill="white"/>
<path fill-rule="evenodd" clip-rule="evenodd" d="M59.2112 46.3196L55.3715 46.739L54.9488 50.5486L54.5261 46.739L50.6864 46.3196L54.5261 45.9003L54.9488 42.0907L55.3715 45.9003L59.2112 46.3196Z" fill="white"/>
<path fill-rule="evenodd" clip-rule="evenodd" d="M35.559 12.3557L27.181 13.2695L26.26 21.5817L25.3346 13.2695L16.9567 12.3557L25.3346 11.4419L26.26 3.12531L27.181 11.4419L35.559 12.3557Z" fill="white"/>
<path fill-rule="evenodd" clip-rule="evenodd" d="M44.7689 49.2243L36.8003 50.0939L35.9238 58L35.0473 50.0939L27.0787 49.2243L35.0473 48.3547L35.9238 40.4486L36.8003 48.3547L44.7689 49.2243Z" fill="white"/>
<path fill-rule="evenodd" clip-rule="evenodd" d="M73.6 41.9715L68.3321 42.5454L67.7493 47.772L67.1709 42.5454L61.903 41.9715L67.1709 41.3933L67.7493 36.1667L68.3321 41.3933L73.6 41.9715Z" fill="white"/>
</svg>
