<svg width="65" height="59" viewBox="0 0 65 59" fill="none" xmlns="http://www.w3.org/2000/svg">
<path fill-rule="evenodd" clip-rule="evenodd" d="M23.1669 37.062C23.3869 35.4885 24.8409 34.3932 26.4096 34.6133C27.9831 34.8333 29.0784 36.2872 28.8584 37.8607C28.6384 39.4342 27.1844 40.5295 25.6109 40.3095C24.0374 40.0895 22.9421 38.6355 23.1621 37.062H23.1669Z" fill="white"/>
<path fill-rule="evenodd" clip-rule="evenodd" d="M8.39797 54.9972C8.6658 53.0745 10.445 51.7354 12.3676 52.0032C14.2903 52.271 15.6295 54.0502 15.3616 55.9729C15.0938 57.8955 13.3146 59.2347 11.3967 58.9669C9.47408 58.699 8.13492 56.9199 8.40275 55.002L8.39797 54.9972Z" fill="white"/>
<path fill-rule="evenodd" clip-rule="evenodd" d="M0.0328938 36.4067C0.252899 34.8332 1.70685 33.738 3.27559 33.958C4.84911 34.178 5.94435 35.6319 5.72435 37.2007C5.50434 38.7742 4.05039 39.8694 2.47687 39.6494C0.903351 39.4294 -0.191895 37.9755 0.028111 36.402H0.0328938V36.4067Z" fill="white"/>
<path fill-rule="evenodd" clip-rule="evenodd" d="M3.82564 4.67808C4.24174 1.70801 6.98703 -0.362917 9.9571 0.0531812C12.9272 0.469279 14.9981 3.21457 14.582 6.18464C14.1659 9.15472 11.4206 11.2256 8.45054 10.8095C5.48047 10.3934 3.40954 7.64816 3.82564 4.67808Z" fill="white"/>
<path fill-rule="evenodd" clip-rule="evenodd" d="M58.1384 54.5381C58.3823 52.7876 59.9988 51.5728 61.7445 51.8167C63.4902 52.0607 64.7098 53.6772 64.4659 55.4229C64.222 57.1686 62.6054 58.3882 60.8597 58.1443C59.114 57.9004 57.8944 56.2838 58.1384 54.5381Z" fill="white"/>
<path fill-rule="evenodd" clip-rule="evenodd" d="M49.0081 36.8085C49.3238 34.5367 51.4234 32.9536 53.6952 33.2693C55.967 33.5849 57.5501 35.6893 57.2344 37.9563C56.914 40.2281 54.8143 41.8112 52.5473 41.4908C50.2755 41.1751 48.6924 39.0755 49.0081 36.8037V36.8085Z" fill="white"/>
<path fill-rule="evenodd" clip-rule="evenodd" d="M36.0326 18.8637C36.4965 15.5445 39.567 13.2296 42.8862 13.6936C46.2054 14.1575 48.5203 17.228 48.0563 20.5472C47.5924 23.8664 44.5219 26.1813 41.2027 25.7174C37.8835 25.2534 35.5686 22.1829 36.0326 18.8637Z" fill="white"/>
</svg>
