<svg width="33" height="38" viewBox="0 0 33 38" fill="none" xmlns="http://www.w3.org/2000/svg">
<path d="M14.8222 37.5362C14.2767 37.4893 13.7311 37.4398 13.1856 37.3966C10.5727 37.189 8.00026 36.7675 5.51137 35.9225C4.13008 35.4542 2.78461 34.8875 1.67333 33.9195C1.18474 33.4933 0.724613 32.9855 0.403169 32.4271C-0.304925 31.1955 -0.0560359 29.7784 0.961562 28.6395C1.9911 27.4879 3.31269 26.7807 4.73072 26.2526C5.66566 25.9045 6.64009 25.6611 7.58881 25.348C7.84137 25.2644 7.95158 25.3379 8.08291 25.5445C9.83524 28.2942 11.5986 31.0357 13.3537 33.7836C14.0195 34.825 14.9333 35.4716 16.1824 35.5717C17.5278 35.6792 18.6566 35.2135 19.4244 34.1013C20.3538 32.7559 21.207 31.3571 22.0905 29.9804C23.0337 28.511 23.9797 27.0434 24.9073 25.5638C25.0606 25.3195 25.1975 25.2837 25.4647 25.3544C27.1087 25.7897 28.7251 26.2921 30.2028 27.1591C31.0422 27.6513 31.8036 28.2355 32.3712 29.0427C33.3144 30.3854 33.1831 32.0358 32.069 33.2463C31.1194 34.2786 29.9392 34.9481 28.6691 35.4789C26.3519 36.4479 23.9154 36.9401 21.4357 37.2331C20.4668 37.3479 19.4886 37.3948 18.5151 37.4756C18.4077 37.4848 18.3021 37.5141 18.1955 37.5344H14.8222V37.5362Z" fill="#25254C"/>
<path d="M4.40922 12.133C4.513 8.64484 5.66102 5.8593 7.92673 3.57154C9.80488 1.67502 12.0862 0.524256 14.7358 0.138524C17.7767 -0.30415 20.599 0.313022 23.1558 2.0029C25.7577 3.72216 27.4742 6.11645 28.2264 9.14996C29.0621 12.5196 28.5423 15.6991 26.6742 18.6289C23.6674 23.344 20.6357 28.0435 17.6141 32.7503C17.5544 32.8431 17.4993 32.9386 17.435 33.0268C16.94 33.7037 16.0657 33.711 15.5844 33.0249C15.2483 32.5455 14.9461 32.0423 14.6302 31.5481C11.8502 27.2096 9.06372 22.8747 6.29288 18.5306C4.99884 16.5009 4.37432 14.2729 4.40922 12.132V12.133ZM22.0069 12.0907C22.0069 9.06455 19.5235 6.58668 16.4983 6.59311C13.4859 6.59954 11.0199 9.0618 11.0098 12.0742C10.9997 15.0994 13.4739 17.5846 16.5001 17.5902C19.5263 17.5947 22.0078 15.1169 22.0069 12.0907Z" fill="#25254C"/>
</svg>
