<svg width="75" height="30" viewBox="0 0 75 30" fill="none" xmlns="http://www.w3.org/2000/svg">
<path d="M46.7953 20.672C46.7589 20.6613 46.7224 20.6496 46.6859 20.6389C46.7216 20.6496 46.758 20.6613 46.7953 20.672Z" fill="white"/>
<path d="M46.1444 20.4662C46.1236 20.4592 46.1029 20.453 46.0829 20.446C46.1029 20.453 46.1236 20.4592 46.1444 20.4662Z" fill="white"/>
<path d="M46.6358 20.6236C46.5977 20.6119 46.5612 20.6003 46.5239 20.5886C46.5604 20.6003 46.5977 20.6119 46.6358 20.6236Z" fill="white"/>
<path d="M46.484 20.576C46.4356 20.5608 46.3881 20.5456 46.3415 20.5303C46.3873 20.5456 46.4348 20.5608 46.484 20.576Z" fill="white"/>
<path d="M45.9023 20.3853C45.891 20.3816 45.8797 20.378 45.8684 20.3734C45.8797 20.377 45.891 20.3807 45.9023 20.3853Z" fill="white"/>
<path d="M46.0182 20.4241C45.9999 20.418 45.9816 20.4118 45.9642 20.4057C45.9816 20.4118 45.9999 20.418 46.0182 20.4241Z" fill="white"/>
<path d="M46.9623 20.7222C46.9242 20.7115 46.8869 20.6998 46.8495 20.6891C46.8869 20.6998 46.9242 20.7115 46.9623 20.7222Z" fill="white"/>
<path d="M47.4295 20.8532C47.3464 20.8308 47.2642 20.8084 47.1794 20.785C47.2616 20.8084 47.3447 20.8308 47.4295 20.8532Z" fill="white"/>
<path d="M47.1472 20.7752C47.1031 20.7626 47.0598 20.75 47.0174 20.7375C47.0598 20.75 47.1039 20.7626 47.1472 20.7752Z" fill="white"/>
<path d="M46.3077 20.5196C46.2737 20.5088 46.2407 20.498 46.2093 20.4873C46.2415 20.498 46.2746 20.5088 46.3077 20.5196Z" fill="white"/>
<path d="M45.4122 20.2236C45.4122 20.2236 45.4063 20.2218 45.4037 20.2218C45.4063 20.2218 45.4096 20.2236 45.4122 20.2236Z" fill="white"/>
<path d="M45.5533 20.2671C45.5487 20.2655 45.5448 20.2647 45.5402 20.2631C45.5448 20.2647 45.5487 20.2655 45.5533 20.2671Z" fill="white"/>
<path d="M45.4942 20.2477C45.4883 20.246 45.4833 20.2442 45.4783 20.2424C45.4833 20.2442 45.4883 20.246 45.4942 20.2477Z" fill="white"/>
<path d="M45.4457 20.2332C45.4418 20.2315 45.4372 20.2307 45.4333 20.2299C45.4372 20.2307 45.4411 20.2323 45.4457 20.2332Z" fill="white"/>
<path d="M55.3079 24.1507C55.3162 24.1429 55.3195 24.1385 55.3195 24.1385L55.3079 24.1507Z" fill="white"/>
<path d="M51.1795 27.2327C40.357 33.0723 29.7108 25.378 29.4377 18.8424C29.3877 17.6415 29.4937 16.4298 30.2298 15.3885C30.937 19.6837 32.098 23.0685 36.9843 25.7448C41.6723 28.3143 50.4367 27.3224 51.1346 27.239C51.1473 27.2372 51.1567 27.2354 51.1643 27.2354C51.166 27.2336 51.1685 27.2336 51.1702 27.2336C51.1762 27.2318 51.1795 27.2318 51.1795 27.2318V27.2327Z" fill="white"/>
<path d="M75 3.51205L55.3206 24.1385L55.3079 24.1519C48.9086 25.0587 42.0777 24.6147 37.6594 18.9841C37.6272 18.9411 37.5925 18.9025 37.5602 18.8595C38.7322 20.2846 42.3474 20.8586 45.3884 20.2209C45.3918 20.2209 45.396 20.2209 45.4037 20.2227C45.4071 20.2227 45.4096 20.2245 45.4113 20.2245C45.4189 20.2263 45.4249 20.2281 45.4342 20.2308C45.4376 20.2308 45.4418 20.2326 45.4469 20.2344C45.4563 20.238 45.4673 20.2406 45.4792 20.2442C45.4834 20.246 45.4885 20.2478 45.4944 20.2487C45.508 20.2532 45.5241 20.2586 45.5411 20.2631C45.5453 20.2649 45.5487 20.2667 45.5546 20.2676C45.575 20.2738 45.5979 20.2819 45.6242 20.2909L45.6259 20.2927C45.6929 20.316 45.7751 20.3438 45.8676 20.3743C45.8786 20.3779 45.8896 20.3806 45.8998 20.3841C45.9201 20.3922 45.9413 20.3985 45.9634 20.4057C45.9803 20.412 45.999 20.4191 46.0177 20.4254C46.0397 20.4317 46.0592 20.4389 46.0813 20.4469C46.1016 20.4532 46.1228 20.4604 46.1449 20.4667C46.1652 20.4729 46.1856 20.481 46.2068 20.4882C46.239 20.4981 46.2738 20.5097 46.306 20.5214C46.3187 20.525 46.3289 20.5276 46.3399 20.5312C46.3865 20.5456 46.4332 20.5626 46.4824 20.577C46.4951 20.5815 46.5087 20.585 46.5231 20.5904C46.5604 20.6021 46.596 20.6137 46.635 20.6245C46.652 20.629 46.6689 20.6344 46.6851 20.6407C46.7224 20.6505 46.758 20.6622 46.7953 20.6738C46.8123 20.6783 46.8309 20.6837 46.8479 20.69C46.8852 20.6998 46.9242 20.7115 46.9607 20.7232C46.9793 20.7277 46.998 20.7348 47.0166 20.7393C47.0582 20.751 47.1023 20.7635 47.1455 20.777C47.1566 20.7788 47.1659 20.7815 47.1769 20.7851H47.1786C47.2609 20.8084 47.3448 20.8308 47.4296 20.8541C52.4084 22.2174 54.5997 21.5429 58.2488 17.7034C62.7519 12.9607 69.3148 4.68966 70.9269 3.63044C70.9846 3.59277 71.0355 3.56497 71.0804 3.54524C71.0821 3.54345 71.0846 3.54345 71.0863 3.54165C71.105 3.53358 71.1237 3.5273 71.1406 3.52192C71.144 3.52192 71.1466 3.52013 71.1499 3.52013C71.1686 3.51564 71.1856 3.51295 71.2008 3.51295H74.9983L75 3.51205Z" fill="white"/>
<path d="M37.6604 18.9841C37.6476 18.968 37.6341 18.9527 37.6214 18.9366C35.0679 16.4486 31.2916 13.9742 30.2316 15.3876C30.938 19.6837 32.099 23.0685 36.9853 25.7457C41.8708 28.4229 51.1805 27.2327 51.1805 27.2327C52.9936 26.3825 55.1231 24.3322 55.3088 24.151C48.9095 25.0578 42.0778 24.6147 37.6612 18.9841H37.6604Z" fill="white"/>
<path d="M56.0431 15.8083C51.7801 20.9223 47.1922 20.7851 47.1769 20.7842C47.1769 20.7842 47.1778 20.7842 47.1786 20.7842C47.2634 20.8084 47.3457 20.8299 47.4288 20.8523C52.4085 22.2147 54.5998 21.542 58.248 17.7007C62.7519 12.9589 69.314 4.68786 70.9278 3.62955C63.8331 6.70584 60.9371 9.9364 56.0431 15.8074V15.8083Z" fill="white"/>
<path d="M45.4121 20.2236C45.4181 20.2254 45.4257 20.2272 45.4342 20.229C45.4384 20.2299 45.4435 20.2317 45.4478 20.2326C45.4571 20.2353 45.4673 20.2388 45.4791 20.2424C45.4842 20.2442 45.4893 20.246 45.4952 20.2478C45.5097 20.2523 45.5249 20.2577 45.541 20.2631C45.5453 20.2648 45.5504 20.2657 45.5555 20.2675C45.5767 20.2747 45.6004 20.2828 45.625 20.2909C45.625 20.2909 45.6258 20.2909 45.6267 20.2909C45.6945 20.3142 45.7768 20.342 45.8684 20.3725C45.8794 20.3761 45.8904 20.3796 45.9015 20.3841C45.9218 20.3913 45.943 20.3976 45.9642 20.4048C45.982 20.411 46.0007 20.4173 46.0193 20.4236C46.0405 20.4308 46.0617 20.4379 46.0829 20.4451C46.1033 20.4523 46.1245 20.4586 46.1457 20.4657C46.1669 20.4729 46.1872 20.4792 46.2093 20.4864C46.2415 20.4971 46.2746 20.5079 46.3077 20.5187C46.3195 20.5223 46.3297 20.5258 46.3416 20.5294C46.3874 20.5447 46.4349 20.5599 46.484 20.5752C46.4976 20.5797 46.5112 20.5841 46.5248 20.5877C46.5612 20.5994 46.5985 20.611 46.6367 20.6227C46.6537 20.6281 46.6706 20.6326 46.6867 20.6379C46.7223 20.6487 46.7588 20.6604 46.7961 20.6711C46.8139 20.6765 46.8317 20.6819 46.8496 20.6873C46.8869 20.698 46.9242 20.7097 46.9623 20.7205C46.981 20.7258 46.9988 20.7312 47.0175 20.7366C47.0599 20.7492 47.104 20.7617 47.1472 20.7743C47.1574 20.777 47.1676 20.7806 47.1786 20.7832C47.193 20.7832 51.7817 20.9214 56.0448 15.8074C60.9388 9.93638 63.834 6.70582 70.9294 3.62953L71.2034 3.51114C64.6548 3.66809 58.884 7.82603 54.3716 12.5903C51.5477 15.5724 49.2868 18.7635 45.3892 20.2191C45.3918 20.2191 45.3977 20.2191 45.4045 20.2209C45.407 20.2209 45.4104 20.2227 45.413 20.2227L45.4121 20.2236Z" fill="white"/>
<path d="M19.6918 5.15332C19.6836 5.16119 19.6803 5.16556 19.6803 5.16556L19.6918 5.15332Z" fill="white"/>
<path d="M23.8204 2.07166C34.643 -3.76792 45.2892 3.9264 45.5623 10.462C45.6123 11.6629 45.5063 12.8746 44.7702 13.9158C44.063 9.62069 42.902 6.23587 38.0156 3.55958C33.3277 0.990021 24.5633 1.98197 23.8654 2.06538C23.8526 2.06717 23.8433 2.06897 23.8357 2.06897C23.834 2.07076 23.8314 2.07076 23.8297 2.07076C23.8238 2.07255 23.8204 2.07255 23.8204 2.07255V2.07166Z" fill="white"/>
<path d="M0 25.7923L19.6794 5.16678L19.6922 5.15333C26.0914 4.24658 32.9223 4.69054 37.3406 10.3211C37.3728 10.3642 37.4076 10.4028 37.4398 10.4458C36.2678 9.02067 32.6526 8.44667 29.6116 9.08435C29.6082 9.08435 29.604 9.08435 29.5963 9.08255C29.5929 9.08255 29.5904 9.08076 29.5887 9.08076C29.5811 9.07897 29.5751 9.07717 29.5658 9.07448C29.5624 9.07448 29.5582 9.07269 29.5531 9.0709C29.5438 9.06731 29.5327 9.06462 29.5209 9.06103C29.5166 9.05924 29.5115 9.05744 29.5056 9.05655C29.492 9.05206 29.4759 9.04668 29.459 9.0422C29.4547 9.0404 29.4513 9.03861 29.4454 9.03771C29.425 9.03143 29.4021 9.02336 29.3758 9.01439L29.3742 9.0126C29.3072 8.98928 29.2249 8.96148 29.1325 8.93098C29.1214 8.92739 29.1104 8.9247 29.1002 8.92112C29.0799 8.91304 29.0587 8.90677 29.0366 8.89959C29.0197 8.89331 29.001 8.88614 28.9824 8.87986C28.9603 8.87358 28.9408 8.86641 28.9188 8.85833C28.8984 8.85206 28.8772 8.84488 28.8552 8.8386C28.8348 8.83233 28.8144 8.82425 28.7932 8.81708C28.761 8.80721 28.7263 8.79555 28.694 8.78389C28.6813 8.78031 28.6711 8.77762 28.6601 8.77403C28.6135 8.75968 28.5668 8.74264 28.5176 8.72829C28.5049 8.7238 28.4913 8.72022 28.4769 8.71483C28.4396 8.70317 28.404 8.69152 28.365 8.68075C28.348 8.67627 28.3311 8.67089 28.315 8.66461C28.2776 8.65474 28.242 8.64308 28.2047 8.63142C28.1878 8.62694 28.1691 8.62156 28.1521 8.61528C28.1148 8.60541 28.0758 8.59376 28.0393 8.5821C28.0207 8.57761 28.002 8.57044 27.9834 8.56595C27.9418 8.55429 27.8977 8.54174 27.8545 8.52828C27.8435 8.52649 27.8341 8.5238 27.8231 8.52021H27.8214C27.7391 8.49689 27.6552 8.47447 27.5704 8.45115C22.5916 7.0879 20.4003 7.76235 16.7512 11.6019C12.2481 16.3446 5.68521 24.6156 4.0731 25.6748C4.01543 25.7125 3.96455 25.7403 3.91961 25.76C3.91791 25.7618 3.91537 25.7618 3.91367 25.7636C3.89501 25.7717 3.87636 25.778 3.8594 25.7833C3.856 25.7833 3.85346 25.7851 3.85007 25.7851C3.83141 25.7896 3.81445 25.7923 3.79919 25.7923H0Z" fill="white"/>
<path d="M37.3397 10.3202C37.3525 10.3364 37.366 10.3516 37.3787 10.3678C39.9322 12.8557 43.7085 15.3302 44.7685 13.9167C44.0621 9.62068 42.9011 6.23586 38.0148 3.55867C33.1293 0.88149 23.8196 2.07165 23.8196 2.07165C22.0065 2.92189 19.877 4.97216 19.6913 5.15333C26.0906 4.24658 32.9223 4.68964 37.3389 10.3202H37.3397Z" fill="white"/>
<path d="M18.956 13.4961C23.2191 8.3821 27.8069 8.51932 27.8222 8.52022C27.8222 8.52022 27.8214 8.52022 27.8205 8.52022C27.7357 8.49601 27.6535 8.47448 27.5703 8.45206C22.5907 7.0897 20.3994 7.76236 16.7511 11.6037C12.2472 16.3455 5.68517 24.6165 4.07137 25.6748C11.166 22.5985 14.062 19.368 18.956 13.497V13.4961Z" fill="white"/>
<path d="M29.5879 9.08077C29.5819 9.07897 29.5743 9.07718 29.5658 9.07539C29.5616 9.07449 29.5565 9.0727 29.5522 9.0718C29.5429 9.06911 29.5327 9.06552 29.5209 9.06193C29.5158 9.06014 29.5107 9.05835 29.5048 9.05655C29.4903 9.05207 29.4751 9.04669 29.459 9.0413C29.4547 9.03951 29.4496 9.03861 29.4445 9.03682C29.4233 9.02965 29.3996 9.02157 29.375 9.0135C29.375 9.0135 29.3742 9.0135 29.3733 9.0135C29.3055 8.99018 29.2232 8.96238 29.1316 8.93188C29.1206 8.9283 29.1096 8.92471 29.0985 8.92023C29.0782 8.91305 29.057 8.90677 29.0358 8.8996C29.018 8.89332 28.9993 8.88704 28.9807 8.88076C28.9595 8.87359 28.9383 8.86641 28.9171 8.85924C28.8967 8.85206 28.8755 8.84579 28.8543 8.83861C28.8331 8.83144 28.8128 8.82516 28.7907 8.81798C28.7585 8.80722 28.7254 8.79646 28.6923 8.78569C28.6805 8.78211 28.6703 8.77852 28.6584 8.77493C28.6126 8.75968 28.5651 8.74444 28.516 8.72919C28.5024 8.72471 28.4888 8.72022 28.4752 8.71663C28.4388 8.70498 28.4015 8.69332 28.3633 8.68166C28.3463 8.67627 28.3294 8.67179 28.3133 8.66641C28.2777 8.65565 28.2412 8.64399 28.2039 8.63322C28.1861 8.62784 28.1683 8.62246 28.1504 8.61708C28.1131 8.60632 28.0758 8.59466 28.0377 8.5839C28.019 8.57851 28.0012 8.57313 27.9825 8.56775C27.9401 8.5552 27.896 8.54264 27.8528 8.53008C27.8426 8.52739 27.8324 8.52381 27.8214 8.52111C27.807 8.52111 23.2183 8.383 18.9552 13.497C14.0612 19.368 11.166 22.5985 4.07056 25.6748L3.79665 25.7932C10.3452 25.6363 16.116 21.4783 20.6284 16.7141C23.4523 13.732 25.7132 10.5409 29.6108 9.08525C29.6082 9.08525 29.6023 9.08525 29.5955 9.08346C29.593 9.08346 29.5896 9.08166 29.587 9.08166L29.5879 9.08077Z" fill="white"/>
</svg>
