<svg width="32" height="32" viewBox="0 0 32 32" fill="none" xmlns="http://www.w3.org/2000/svg">
<path d="M0 16.9409C0 16.3162 0 15.6906 0 15.0658C0.0187915 14.9554 0.0414979 14.8458 0.0563745 14.7354C0.133889 14.1584 0.180085 13.5759 0.290485 13.0052C0.965412 9.50784 2.62454 6.55152 5.25613 4.15577C7.54321 2.07162 10.2226 0.764135 13.2777 0.244273C13.8705 0.143275 14.4702 0.0806413 15.0669 0C15.6917 0 16.3173 0 16.9421 0C17.3539 0.0485414 17.7673 0.0876876 18.1784 0.147973C21.9289 0.696021 25.1422 2.3112 27.7049 5.10702C31.0889 8.79851 32.485 13.1743 31.8516 18.1396C31.3708 21.9086 29.7109 25.1327 26.9031 27.6999C22.9483 31.3162 18.2802 32.6464 13.0108 31.71C9.50301 31.0868 6.55275 29.3832 4.15605 26.7518C2.07176 24.4633 0.764187 21.7833 0.244289 18.7276C0.143285 18.1349 0.0806468 17.536 0 16.9409ZM20.2337 24.3615C20.9376 24.3654 21.5812 24.2347 22.199 23.9536C22.9695 23.6036 23.5262 22.9945 24.1079 22.4151C24.5409 21.9845 24.5417 21.6432 24.111 21.2102C23.1934 20.2872 22.2734 19.3657 21.3518 18.4465C20.9251 18.0206 20.5728 18.0245 20.1453 18.4551C19.6387 18.9648 19.1399 19.4823 18.6302 19.9889C18.0359 20.5784 17.3077 20.6285 16.6242 20.1408C14.8304 18.8599 13.2738 17.3371 11.9553 15.5708C11.3923 14.8161 11.4377 14.1161 12.1001 13.4483C12.6208 12.9237 13.1486 12.4055 13.6677 11.8785C14.0435 11.4965 14.0498 11.1387 13.6755 10.7613C12.7304 9.80692 11.7799 8.85723 10.8255 7.91146C10.4598 7.54897 10.102 7.54975 9.73086 7.90441C9.42236 8.19958 9.12013 8.501 8.82652 8.81104C7.86972 9.8218 7.43047 11.0134 7.62386 12.407C7.76167 13.4005 8.17429 14.3056 8.63704 15.1762C10.5827 18.838 13.4179 21.5993 17.1449 23.4196C18.1244 23.898 19.1509 24.2856 20.2345 24.3607L20.2337 24.3615Z" fill="#25254C"/>
</svg>
