<svg width="62" height="62" viewBox="0 0 62 62" fill="none" xmlns="http://www.w3.org/2000/svg">
<g filter="url(#filter0_d_1207_2349)">
<circle cx="30.8541" cy="26.8541" r="26.8541" fill="url(#paint0_linear_1207_2349)"/>
</g>
<path d="M20.8796 40.1062H40.546V34.2136H31.0443V34.0663L37.0842 28.763C37.6489 28.272 38.1399 27.7687 38.5573 27.2531C38.9992 26.7375 39.3675 26.1973 39.6622 25.6326C39.9568 25.0434 40.1777 24.4295 40.3251 23.7912C40.4724 23.1528 40.546 22.4776 40.546 21.7656C40.546 20.4152 40.3005 19.249 39.8095 18.2669C39.3184 17.2603 38.6432 16.4255 37.7839 15.7626C36.9246 15.0997 35.9179 14.6086 34.764 14.2894C33.61 13.9703 32.3701 13.8107 31.0443 13.8107C29.9149 13.8107 28.7609 13.9457 27.5824 14.2158C26.4285 14.4859 25.3604 14.9646 24.3783 15.6521C23.4208 16.3396 22.6106 17.2603 21.9477 18.4142C21.3093 19.5682 20.9533 21.0291 20.8796 22.7968H27.3614C27.4106 22.1094 27.5579 21.5447 27.8034 21.1027C28.0489 20.6608 28.3435 20.317 28.6873 20.0715C29.031 19.8014 29.4116 19.6173 29.829 19.5191C30.2463 19.3963 30.6515 19.3349 31.0443 19.3349C31.388 19.3349 31.744 19.384 32.1123 19.4823C32.4806 19.5559 32.8121 19.691 33.1067 19.8874C33.4013 20.0592 33.6468 20.3048 33.8433 20.6239C34.0397 20.9186 34.1379 21.2991 34.1379 21.7656C34.1379 22.0602 34.0888 22.3549 33.9906 22.6495C33.9169 22.9196 33.7942 23.1897 33.6223 23.4597C33.475 23.7298 33.2786 24.0122 33.033 24.3068C32.7875 24.5769 32.4929 24.8592 32.1491 25.1538L20.8796 34.9502V40.1062Z" fill="white"/>
<defs>
<filter id="filter0_d_1207_2349" x="0" y="0" width="61.7083" height="61.7082" filterUnits="userSpaceOnUse" color-interpolation-filters="sRGB">
<feFlood flood-opacity="0" result="BackgroundImageFix"/>
<feColorMatrix in="SourceAlpha" type="matrix" values="0 0 0 0 0 0 0 0 0 0 0 0 0 0 0 0 0 0 127 0" result="hardAlpha"/>
<feOffset dy="4"/>
<feGaussianBlur stdDeviation="2"/>
<feComposite in2="hardAlpha" operator="out"/>
<feColorMatrix type="matrix" values="0 0 0 0 0 0 0 0 0 0 0 0 0 0 0 0 0 0 0.25 0"/>
<feBlend mode="normal" in2="BackgroundImageFix" result="effect1_dropShadow_1207_2349"/>
<feBlend mode="normal" in="SourceGraphic" in2="effect1_dropShadow_1207_2349" result="shape"/>
</filter>
<linearGradient id="paint0_linear_1207_2349" x1="53.3769" y1="52.4088" x2="-2.49696" y2="5.19756" gradientUnits="userSpaceOnUse">
<stop stop-color="#25254C"/>
<stop offset="1" stop-color="#6A6DBD"/>
</linearGradient>
</defs>
</svg>
