<svg width="62" height="62" viewBox="0 0 62 62" fill="none" xmlns="http://www.w3.org/2000/svg">
<g filter="url(#filter0_d_1207_2360)">
<circle cx="30.8541" cy="26.8541" r="26.8541" fill="url(#paint0_linear_1207_2360)"/>
</g>
<path d="M31.0565 40.4131C32.4559 40.4131 33.7695 40.2658 34.9971 39.9712C36.2493 39.6766 37.3418 39.2223 38.2748 38.6085C39.2078 37.9947 39.9444 37.209 40.4845 36.2515C41.0247 35.294 41.2948 34.1523 41.2948 32.8265C41.2948 32.1144 41.2088 31.4515 41.037 30.8377C40.8897 30.1994 40.6441 29.6224 40.3004 29.1068C39.9812 28.5666 39.5761 28.0879 39.0851 27.6705C38.594 27.2531 38.0293 26.8848 37.3909 26.5656V26.4183C38.4221 25.9764 39.2569 25.2889 39.8953 24.3559C40.5336 23.3984 40.8528 22.2199 40.8528 20.8204C40.8528 19.6173 40.595 18.5738 40.0794 17.69C39.5884 16.7815 38.9009 16.0327 38.017 15.4434C37.1331 14.8296 36.0774 14.3754 34.8498 14.0808C33.6467 13.7616 32.3332 13.602 30.9091 13.602C29.5342 13.602 28.2452 13.7493 27.0421 14.0439C25.8636 14.3386 24.8202 14.8173 23.9117 15.4803C23.0278 16.1432 22.3158 17.0025 21.7757 18.0582C21.2355 19.0894 20.9163 20.3539 20.8181 21.8516H27.1526C27.2017 21.4096 27.3122 21.0168 27.4841 20.6731C27.6805 20.3293 27.9383 20.047 28.2575 19.826C28.6012 19.605 28.9941 19.4332 29.436 19.3104C29.8779 19.1877 30.369 19.1263 30.9091 19.1263C31.3265 19.1263 31.7439 19.1754 32.1613 19.2736C32.6032 19.3472 32.9838 19.4823 33.303 19.6787C33.6467 19.8506 33.9168 20.0961 34.1132 20.4153C34.3342 20.7344 34.4447 21.1396 34.4447 21.6306C34.4447 21.9498 34.3833 22.2567 34.2605 22.5513C34.1378 22.8214 33.9413 23.0669 33.6713 23.2879C33.4012 23.4843 33.0329 23.6439 32.5664 23.7667C32.1245 23.8649 31.5721 23.914 30.9091 23.914H28.0365V29.4382H30.9091C31.6212 29.4382 32.235 29.5119 32.7506 29.6592C33.2662 29.782 33.6835 29.9661 34.0027 30.2116C34.3465 30.4572 34.592 30.7518 34.7393 31.0955C34.8866 31.4147 34.9603 31.7707 34.9603 32.1635C34.9603 32.6791 34.8375 33.1088 34.592 33.4525C34.371 33.7963 34.0764 34.0786 33.7081 34.2996C33.3398 34.5206 32.9224 34.6802 32.4559 34.7784C31.9894 34.852 31.5229 34.8889 31.0565 34.8889C30.4672 34.8889 29.927 34.8275 29.436 34.7047C28.945 34.5574 28.5153 34.361 28.147 34.1155C27.8033 33.8454 27.5209 33.5139 27.2999 33.1211C27.1035 32.7283 26.9808 32.2863 26.9317 31.7953H20.5972C20.6708 33.3666 20.99 34.7047 21.5547 35.8096C22.1194 36.8899 22.8683 37.7737 23.8012 38.4612C24.7342 39.1487 25.8145 39.6397 27.0421 39.9344C28.2943 40.2535 29.6324 40.4131 31.0565 40.4131Z" fill="white"/>
<defs>
<filter id="filter0_d_1207_2360" x="0" y="0" width="61.7083" height="61.7082" filterUnits="userSpaceOnUse" color-interpolation-filters="sRGB">
<feFlood flood-opacity="0" result="BackgroundImageFix"/>
<feColorMatrix in="SourceAlpha" type="matrix" values="0 0 0 0 0 0 0 0 0 0 0 0 0 0 0 0 0 0 127 0" result="hardAlpha"/>
<feOffset dy="4"/>
<feGaussianBlur stdDeviation="2"/>
<feComposite in2="hardAlpha" operator="out"/>
<feColorMatrix type="matrix" values="0 0 0 0 0 0 0 0 0 0 0 0 0 0 0 0 0 0 0.25 0"/>
<feBlend mode="normal" in2="BackgroundImageFix" result="effect1_dropShadow_1207_2360"/>
<feBlend mode="normal" in="SourceGraphic" in2="effect1_dropShadow_1207_2360" result="shape"/>
</filter>
<linearGradient id="paint0_linear_1207_2360" x1="53.3769" y1="52.4088" x2="-2.49696" y2="5.19756" gradientUnits="userSpaceOnUse">
<stop stop-color="#25254C"/>
<stop offset="1" stop-color="#6A6DBD"/>
</linearGradient>
</defs>
</svg>
