<svg width="62" height="62" viewBox="0 0 62 62" fill="none" xmlns="http://www.w3.org/2000/svg">
<g filter="url(#filter0_d_1207_2354)">
<circle cx="30.8541" cy="26.8541" r="26.8541" fill="url(#paint0_linear_1207_2354)"/>
</g>
<path d="M30.4979 40.3499C32.0202 40.3499 33.4197 40.1535 34.6964 39.7607C35.9731 39.3433 37.0779 38.754 38.0109 37.9929C38.9685 37.2072 39.705 36.262 40.2206 35.1571C40.7608 34.0523 41.0309 32.8124 41.0309 31.4374C41.0309 30.0625 40.7853 28.8226 40.2943 27.7178C39.8033 26.6129 39.1281 25.6799 38.2687 24.9188C37.434 24.1331 36.4641 23.5439 35.3593 23.151C34.279 22.7337 33.125 22.525 31.8974 22.525C31.0381 22.525 30.2401 22.6109 29.5036 22.7828C28.7915 22.9546 28.1164 23.2124 27.478 23.5562H27.3307L27.8463 19.5787H39.4104V14.0544H22.543L20.4806 29.7433H26.8887C27.1343 29.4733 27.3921 29.24 27.6621 29.0436C27.9322 28.8226 28.2146 28.6385 28.5092 28.4912C28.8284 28.3439 29.1598 28.2334 29.5036 28.1597C29.8473 28.0861 30.2033 28.0492 30.5716 28.0492C31.1854 28.0492 31.7378 28.1474 32.2289 28.3439C32.7199 28.5157 33.1373 28.7612 33.481 29.0804C33.8493 29.3751 34.1317 29.7311 34.3281 30.1484C34.5245 30.5413 34.6227 30.971 34.6227 31.4374C34.6227 31.9039 34.5245 32.3459 34.3281 32.7633C34.1317 33.1561 33.8493 33.5121 33.481 33.8313C33.1127 34.1259 32.6708 34.3714 32.1552 34.5679C31.6642 34.7397 31.1117 34.8257 30.4979 34.8257C29.9823 34.8257 29.5158 34.7766 29.0984 34.6784C28.6811 34.5556 28.3005 34.396 27.9568 34.1996C27.6376 33.9786 27.3552 33.7331 27.1097 33.463C26.8887 33.1929 26.7169 32.9106 26.5941 32.616H20.1123C20.2351 33.819 20.5788 34.8993 21.1435 35.8569C21.7328 36.8144 22.4816 37.6246 23.39 38.2875C24.323 38.9505 25.391 39.466 26.5941 39.8343C27.8217 40.1781 29.123 40.3499 30.4979 40.3499Z" fill="white"/>
<defs>
<filter id="filter0_d_1207_2354" x="0" y="0" width="61.7083" height="61.7082" filterUnits="userSpaceOnUse" color-interpolation-filters="sRGB">
<feFlood flood-opacity="0" result="BackgroundImageFix"/>
<feColorMatrix in="SourceAlpha" type="matrix" values="0 0 0 0 0 0 0 0 0 0 0 0 0 0 0 0 0 0 127 0" result="hardAlpha"/>
<feOffset dy="4"/>
<feGaussianBlur stdDeviation="2"/>
<feComposite in2="hardAlpha" operator="out"/>
<feColorMatrix type="matrix" values="0 0 0 0 0 0 0 0 0 0 0 0 0 0 0 0 0 0 0.25 0"/>
<feBlend mode="normal" in2="BackgroundImageFix" result="effect1_dropShadow_1207_2354"/>
<feBlend mode="normal" in="SourceGraphic" in2="effect1_dropShadow_1207_2354" result="shape"/>
</filter>
<linearGradient id="paint0_linear_1207_2354" x1="53.3769" y1="52.4088" x2="-2.49696" y2="5.19756" gradientUnits="userSpaceOnUse">
<stop stop-color="#25254C"/>
<stop offset="1" stop-color="#6A6DBD"/>
</linearGradient>
</defs>
</svg>
