<svg width="62" height="62" viewBox="0 0 62 62" fill="none" xmlns="http://www.w3.org/2000/svg">
<g filter="url(#filter0_d_1207_2366)">
<circle cx="30.8541" cy="26.8541" r="26.8541" fill="url(#paint0_linear_1207_2366)"/>
</g>
<path d="M31.4679 40.4132C32.9901 40.4132 34.3896 40.2045 35.6663 39.7871C36.9676 39.3697 38.0724 38.7804 38.9809 38.0193C39.9139 37.2336 40.6382 36.3007 41.1538 35.2204C41.6694 34.1401 41.9272 32.9493 41.9272 31.648C41.9272 30.3467 41.6694 29.1682 41.1538 28.1125C40.6627 27.0322 39.9875 26.1237 39.1282 25.3872C38.2934 24.626 37.3236 24.0491 36.2187 23.6562C35.1384 23.2388 33.9968 23.0301 32.7937 23.0301C31.6152 23.0301 30.5717 23.1774 29.6633 23.4721C28.7548 23.7667 28.006 24.135 27.4167 24.5769H27.2694C27.3185 23.5703 27.4536 22.7232 27.6745 22.0358C27.9201 21.3483 28.227 20.7959 28.5953 20.3785C28.9635 19.9365 29.3932 19.6174 29.8843 19.4209C30.3998 19.2245 30.9277 19.1263 31.4679 19.1263C32.4009 19.1263 33.1497 19.3473 33.7144 19.7892C34.3037 20.2312 34.7088 20.7468 34.9297 21.336H41.4116C41.2151 20.2312 40.8591 19.2123 40.3435 18.2793C39.8279 17.3217 39.1527 16.4992 38.318 15.8118C37.5077 15.1243 36.5257 14.5841 35.3717 14.1913C34.2423 13.7985 32.941 13.6021 31.4679 13.6021C29.3809 13.6021 27.6377 13.9949 26.2382 14.7806C24.8388 15.5662 23.7093 16.5974 22.85 17.8742C22.0152 19.1263 21.426 20.5504 21.0822 22.1463C20.7385 23.7422 20.5667 25.3626 20.5667 27.0076C20.5667 28.7263 20.7508 30.3958 21.1191 32.0163C21.4874 33.6122 22.0889 35.0362 22.9237 36.2884C23.783 37.5406 24.9124 38.5472 26.3119 39.3083C27.7114 40.0449 29.43 40.4132 31.4679 40.4132ZM31.4679 34.8889C30.9277 34.8889 30.4121 34.8275 29.9211 34.7048C29.43 34.5574 29.0004 34.3487 28.6321 34.0787C28.2638 33.8086 27.9692 33.4771 27.7482 33.0843C27.5272 32.6669 27.4167 32.1881 27.4167 31.648C27.4167 31.1078 27.5272 30.6414 27.7482 30.2485C27.9692 29.8311 28.2638 29.4874 28.6321 29.2173C29.0004 28.9472 29.43 28.7508 29.9211 28.6281C30.4121 28.4807 30.9277 28.4071 31.4679 28.4071C32.008 28.4071 32.5236 28.4807 33.0147 28.6281C33.5057 28.7508 33.9354 28.9472 34.3037 29.2173C34.6719 29.4874 34.9666 29.8311 35.1876 30.2485C35.4085 30.6414 35.519 31.1078 35.519 31.648C35.519 32.1881 35.4085 32.6669 35.1876 33.0843C34.9666 33.4771 34.6719 33.8086 34.3037 34.0787C33.9354 34.3487 33.5057 34.5574 33.0147 34.7048C32.5236 34.8275 32.008 34.8889 31.4679 34.8889Z" fill="white"/>
<defs>
<filter id="filter0_d_1207_2366" x="0" y="0" width="61.7083" height="61.7082" filterUnits="userSpaceOnUse" color-interpolation-filters="sRGB">
<feFlood flood-opacity="0" result="BackgroundImageFix"/>
<feColorMatrix in="SourceAlpha" type="matrix" values="0 0 0 0 0 0 0 0 0 0 0 0 0 0 0 0 0 0 127 0" result="hardAlpha"/>
<feOffset dy="4"/>
<feGaussianBlur stdDeviation="2"/>
<feComposite in2="hardAlpha" operator="out"/>
<feColorMatrix type="matrix" values="0 0 0 0 0 0 0 0 0 0 0 0 0 0 0 0 0 0 0.25 0"/>
<feBlend mode="normal" in2="BackgroundImageFix" result="effect1_dropShadow_1207_2366"/>
<feBlend mode="normal" in="SourceGraphic" in2="effect1_dropShadow_1207_2366" result="shape"/>
</filter>
<linearGradient id="paint0_linear_1207_2366" x1="53.3769" y1="52.4088" x2="-2.49696" y2="5.19756" gradientUnits="userSpaceOnUse">
<stop stop-color="#25254C"/>
<stop offset="1" stop-color="#6A6DBD"/>
</linearGradient>
</defs>
</svg>
