<svg width="50" height="50" viewBox="0 0 50 50" fill="none" xmlns="http://www.w3.org/2000/svg">
<circle cx="25" cy="25" r="25" fill="url(#paint0_linear_1231_1644)"/>
<path fill-rule="evenodd" clip-rule="evenodd" d="M24.5 15.3585C18.899 15.3585 14.3585 19.899 14.3585 25.5C14.3585 31.101 18.899 35.6415 24.5 35.6415C30.101 35.6415 34.6415 31.101 34.6415 25.5C34.6415 19.899 30.101 15.3585 24.5 15.3585ZM12 25.5C12 18.5964 17.5964 13 24.5 13C31.4036 13 37 18.5964 37 25.5C37 32.4036 31.4036 38 24.5 38C17.5964 38 12 32.4036 12 25.5ZM19.9245 22.1038C19.9245 21.4525 20.4525 20.9245 21.1038 20.9245H21.2165C21.8678 20.9245 22.3958 21.4525 22.3958 22.1038V22.1944C22.3958 22.8457 21.8678 23.3737 21.2165 23.3737H21.1038C20.4525 23.3737 19.9245 22.8457 19.9245 22.1944V22.1038ZM26.717 22.1038C26.717 21.4525 27.2449 20.9245 27.8962 20.9245H27.9965C28.6478 20.9245 29.1757 21.4525 29.1757 22.1038V22.1944C29.1757 22.8457 28.6478 23.3737 27.9965 23.3737H27.8962C27.2449 23.3737 26.717 22.8457 26.717 22.1944V22.1038ZM29.0453 27.9397C29.599 28.2825 29.7701 29.0093 29.4273 29.5631C28.4016 31.22 26.5855 32.3396 24.5 32.3396C22.4145 32.3396 20.5984 31.22 19.5727 29.5631C19.2299 29.0093 19.401 28.2825 19.9547 27.9397C20.5085 27.5969 21.2353 27.768 21.5781 28.3217C22.2033 29.3317 23.2856 29.9811 24.5 29.9811C25.7144 29.9811 26.7967 29.3317 27.4219 28.3217C27.7647 27.768 28.4915 27.5969 29.0453 27.9397Z" fill="white"/>
<defs>
<linearGradient id="paint0_linear_1231_1644" x1="45.9677" y1="48.7903" x2="-6.04839" y2="4.83871" gradientUnits="userSpaceOnUse">
<stop stop-color="#FA557B"/>
<stop offset="1" stop-color="#BB2649"/>
</linearGradient>
</defs>
</svg>
