<svg width="17" height="17" viewBox="0 0 17 17" fill="none" xmlns="http://www.w3.org/2000/svg">
<path fill-rule="evenodd" clip-rule="evenodd" d="M7.82852 0.0328102C4.99543 0.263128 2.47083 1.88191 1.07252 4.3647C-0.10197 6.4501 -0.324849 9.0037 0.468185 11.2892C0.888824 12.5015 1.50994 13.5015 2.42462 14.4392C4.97868 17.0575 8.91906 17.7442 12.2143 16.1453C13.9924 15.2825 15.4699 13.761 16.2573 11.9818C17.5536 9.05252 17.134 5.73759 15.1467 3.208C14.6802 2.61412 13.7502 1.77405 13.1024 1.36115C12.3797 0.900659 11.4849 0.506775 10.6922 0.300289C10.09 0.143387 9.68969 0.0764181 9.07902 0.030311C8.53615 -0.0106891 8.35887 -0.0103269 7.82852 0.0328102ZM8.91141 3.2176C8.9843 3.2669 9.08855 3.37103 9.14303 3.44901L9.24212 3.59077L9.25198 5.87472L9.26184 8.1587L10.3797 9.28248C11.6002 10.5093 11.6009 10.5103 11.5729 10.8956C11.5551 11.1422 11.4528 11.3169 11.2388 11.4662C11.1142 11.5532 11.063 11.5652 10.8188 11.5652C10.575 11.5652 10.5232 11.5531 10.3978 11.4662C10.3192 11.4118 9.70662 10.8169 9.0365 10.1442C8.02947 9.13343 7.81079 8.89609 7.77614 8.77635C7.74573 8.6712 7.73725 7.93929 7.74515 6.10829L7.75602 3.58508L7.86476 3.43083C8.02776 3.19964 8.24194 3.09938 8.53927 3.11521C8.72 3.12481 8.81141 3.14998 8.91141 3.2176Z" fill="#25254C"/>
</svg>
