<svg width="18" height="20" viewBox="0 0 18 20" fill="none" xmlns="http://www.w3.org/2000/svg">
<path d="M17.997 8.09161C17.8251 8.10753 17.6526 8.11583 17.4799 8.1166C15.5857 8.11681 13.8191 7.20904 12.7815 5.70229V13.9236C12.7815 17.2795 9.92023 20 6.39074 20C2.86125 20 0 17.2795 0 13.9236C0 10.5677 2.86125 7.8472 6.39074 7.8472C6.52417 7.8472 6.65457 7.85859 6.78572 7.86647V10.8608C6.65457 10.8459 6.52563 10.823 6.39074 10.823C4.58936 10.823 3.12903 12.2115 3.12903 13.9243C3.12903 15.6371 4.58936 17.0255 6.39074 17.0255C8.19245 17.0255 9.7836 15.6759 9.7836 13.9628L9.81503 0H12.8279C13.112 2.56891 15.2906 4.57546 18 4.76376V8.09161" fill="#25254C"/>
</svg>
